<?xml version="1.0" standalone="no"?>
<!DOCTYPE svg PUBLIC "-//W3C//DTD SVG 20010904//EN"
 "http://www.w3.org/TR/2001/REC-SVG-20010904/DTD/svg10.dtd">
<svg version="1.0" xmlns="http://www.w3.org/2000/svg"
 width="2560.000000pt" height="2560.000000pt" viewBox="0 0 2560.000000 2560.000000"
 preserveAspectRatio="xMidYMid meet">

<g transform="translate(0.000000,2560.000000) scale(0.100000,-0.100000)"
fill="#000000" stroke="none">
<path d="M12595 17330 c-351 -16 -635 -60 -944 -146 -327 -91 -709 -275 -1001
-483 -229 -162 -531 -448 -711 -673 -358 -447 -616 -1022 -714 -1590 -40 -235
-49 -350 -49 -608 1 -396 44 -655 176 -1060 120 -367 326 -775 576 -1140 188
-274 599 -805 1147 -1479 484 -597 1519 -1891 1618 -2022 31 -41 69 -82 83
-90 26 -14 28 -12 80 46 29 33 163 197 297 365 282 354 580 722 927 1145 135
165 277 338 315 385 38 46 161 199 274 340 112 140 253 314 311 385 384 467
714 919 880 1205 312 538 489 1040 556 1575 23 187 23 555 0 750 -69 568 -253
1063 -578 1554 -410 619 -997 1078 -1705 1336 -415 151 -1001 229 -1538 205z
m1060 -1149 c9 -31 -98 -437 -400 -1506 -156 -550 -157 -558 -108 -616 53 -62
39 -61 664 -58 l568 4 25 -24 c52 -49 68 -24 -309 -472 -127 -151 -260 -310
-295 -354 -145 -179 -870 -1045 -1135 -1355 -78 -91 -215 -253 -305 -360 -246
-292 -360 -420 -386 -432 -32 -15 -54 5 -54 47 0 35 81 346 228 875 284 1020
312 1127 312 1195 0 63 -24 99 -84 126 -38 17 -78 19 -615 19 l-575 0 -23 22
c-13 12 -23 28 -23 36 0 20 34 65 130 172 90 100 623 710 821 940 64 74 149
173 189 220 40 47 105 121 145 165 39 44 140 161 225 260 85 99 202 234 260
300 58 66 191 219 295 340 320 372 414 475 434 475 6 0 12 -9 16 -19z m-1280
-6311 c-3 -5 -14 -10 -23 -10 -15 0 -15 2 -2 10 20 13 33 13 25 0z m622 -12
c-3 -8 -6 -5 -6 6 -1 11 2 17 5 13 3 -3 4 -12 1 -19z m-747 2 c0 -5 -5 -10
-11 -10 -5 0 -7 5 -4 10 3 6 8 10 11 10 2 0 4 -4 4 -10z m1431 -23 c-10 -9
-11 -8 -5 6 3 10 9 15 12 12 3 -3 0 -11 -7 -18z m-271 3 c13 -8 13 -10 -2 -10
-9 0 -20 5 -23 10 -8 13 5 13 25 0z m-480 -20 c0 -11 -4 -20 -8 -20 -4 0 -8 9
-8 20 0 11 4 20 8 20 4 0 8 -9 8 -20z m1250 5 c-6 -8 -8 -20 -4 -27 6 -11 5
-11 -8 0 -22 18 -31 -7 -12 -33 12 -17 18 -14 15 7 0 4 7 4 16 1 14 -6 14 -7
-2 -19 -9 -7 -23 -10 -30 -8 -7 3 -16 0 -21 -7 -5 -8 -3 -10 7 -5 8 4 5 0 -6
-9 -17 -14 -18 -17 -5 -25 10 -7 11 -10 3 -10 -7 0 -13 -6 -13 -12 -1 -14 -74
-98 -85 -98 -3 0 -3 5 1 12 4 7 3 8 -4 4 -6 -4 -9 -13 -6 -21 7 -16 -55 -97
-68 -89 -5 3 -7 1 -6 -5 3 -10 -64 -100 -114 -153 -16 -16 -28 -33 -28 -37 0
-9 -39 -46 -49 -46 -3 0 -5 -5 -3 -12 3 -12 -10 -17 -30 -14 -4 0 -4 -7 -1
-16 5 -12 2 -15 -9 -10 -11 4 -14 1 -11 -11 2 -11 -12 -34 -35 -60 -21 -23
-37 -42 -35 -42 2 0 -43 -57 -100 -127 -142 -176 -401 -500 -527 -662 -121
-154 -198 -241 -214 -241 -7 0 -27 16 -46 35 -19 19 -30 35 -25 35 5 0 -1 10
-12 23 -26 28 -46 67 -39 75 3 3 6 0 6 -7 0 -7 5 -9 11 -5 16 9 -10 24 -29 16
-9 -3 -13 -1 -9 5 4 6 -3 13 -14 16 -11 3 -23 15 -26 26 -3 12 -9 21 -14 21
-6 0 -13 9 -17 19 -4 11 -27 41 -52 68 -25 26 -76 86 -113 133 -37 47 -81 102
-97 122 -17 20 -30 41 -30 47 0 6 -4 11 -8 11 -4 0 -15 12 -24 28 -10 15 -30
41 -45 57 -16 17 -39 47 -52 68 -12 20 -30 43 -40 50 -28 20 -34 37 -19 55 12
15 11 16 -5 3 -15 -12 -20 -12 -30 -1 -10 10 -9 11 3 5 8 -5 3 4 -12 19 -15
16 -25 32 -22 37 3 5 0 9 -5 9 -6 0 -10 3 -10 8 4 26 -3 52 -15 52 -8 0 -17
11 -20 25 -4 14 -10 24 -14 24 -22 -4 -34 3 -29 15 3 8 -1 20 -9 26 -8 7 -14
21 -14 31 0 15 -6 19 -32 17 -29 -3 -33 0 -36 25 -2 15 -8 27 -13 27 -6 0 -7
-6 -3 -12 10 -18 -5 -2 -55 60 -24 28 -40 52 -37 52 4 0 -4 12 -18 27 -14 15
-23 30 -20 35 3 4 0 8 -5 8 -6 0 -11 9 -11 20 0 11 -3 20 -8 20 -4 0 -13 9
-19 20 -11 16 -10 18 2 14 8 -4 15 -2 15 4 0 5 -6 12 -14 15 -8 3 -14 15 -13
26 1 20 1 20 19 1 11 -11 22 -20 27 -20 4 0 22 -13 39 -29 35 -34 34 -68 -4
-77 -13 -3 -21 -10 -18 -16 3 -5 11 -4 20 3 8 6 14 8 14 3 0 -4 6 0 13 10 10
13 20 16 35 12 12 -4 20 -12 17 -17 -4 -5 1 -9 9 -9 9 0 16 -6 16 -13 0 -7 13
-28 30 -47 25 -29 31 -33 40 -20 8 12 10 9 10 -14 0 -34 24 -54 56 -48 26 5
33 22 9 22 -8 0 -15 5 -15 10 0 17 25 11 38 -10 10 -17 9 -20 -11 -25 -16 -4
-23 -14 -24 -35 -2 -23 1 -28 14 -23 12 5 14 1 9 -15 -6 -17 -4 -21 8 -16 10
4 16 1 16 -9 0 -10 11 -17 32 -19 38 -3 48 -27 23 -52 -15 -15 -15 -16 2 -17
10 -1 29 0 42 1 13 1 28 -4 32 -12 7 -10 9 -10 9 3 0 27 -27 44 -45 29 -10 -9
-15 -9 -15 -1 0 6 3 11 8 11 4 0 6 20 4 45 -4 43 -14 56 -27 35 -3 -5 -12 -10
-18 -9 -9 0 -9 2 1 6 20 8 14 23 -10 23 -21 1 -21 2 -6 13 12 9 14 17 7 30 -7
12 -6 17 3 17 24 0 -57 64 -82 64 -22 1 -25 6 -28 44 -2 28 -7 42 -15 39 -7
-2 -11 -17 -9 -33 l3 -29 -16 23 c-12 16 -14 27 -6 35 5 7 6 18 2 25 -4 8 -6
25 -3 39 3 18 1 24 -7 19 -6 -4 -11 -16 -11 -27 0 -30 -17 -22 -22 11 l-5 30
69 0 c54 0 68 3 68 15 0 8 -9 15 -20 15 -11 0 -20 4 -20 9 0 12 49 20 56 10 7
-12 124 -11 124 1 0 6 5 10 10 10 6 0 10 -13 10 -30 0 -16 5 -30 11 -30 6 0 9
17 7 43 -3 41 -3 42 -38 39 -84 -7 -183 -8 -160 -3 14 4 25 13 25 21 0 12 -20
16 -90 21 -49 3 -79 6 -66 7 17 1 21 6 17 18 -5 13 -2 15 16 10 13 -4 34 -8
48 -10 14 -2 17 -1 8 1 -10 2 -18 14 -18 25 0 18 4 20 37 15 20 -4 39 -11 42
-16 4 -5 39 -11 80 -14 40 -2 76 -8 79 -13 5 -7 16 -6 32 3 l25 13 -27 0 c-18
0 -28 5 -28 15 0 8 9 15 20 15 11 0 20 5 20 10 0 6 9 10 20 10 22 0 28 -25 8
-33 -10 -4 -10 -7 0 -15 8 -5 10 -16 6 -28 -7 -18 -5 -17 17 2 21 20 35 22
127 21 103 -1 103 -2 99 -25 -5 -25 16 -52 40 -52 19 0 55 39 47 51 -3 5 2 9
10 9 8 0 18 -4 21 -10 3 -5 11 -10 17 -10 6 0 5 6 -3 16 -10 13 -10 17 2 25
12 7 12 9 -1 10 -8 0 3 5 24 10 42 10 60 4 36 -11 -10 -7 0 -10 35 -9 79 1 95
-3 95 -23 0 -14 8 -18 36 -18 21 0 33 4 29 10 -3 6 -1 10 4 10 6 0 11 -4 11
-10 0 -5 18 -10 40 -10 44 0 57 25 18 33 -13 3 -6 5 14 4 20 -1 39 1 43 4 9
10 122 1 144 -11 12 -6 30 -8 41 -5 10 3 21 1 25 -5 3 -5 -2 -10 -12 -10 -15
0 -16 -2 -3 -10 8 -5 22 -8 30 -6 8 2 32 7 53 11 36 6 53 25 22 25 -8 0 -15 4
-15 10 0 5 6 7 14 4 7 -3 76 -6 154 -7 77 -1 143 -4 145 -7 3 -3 7 -18 9 -35
3 -29 2 -30 -37 -30 -36 0 -40 -3 -43 -28 -4 -32 12 -51 51 -61 15 -3 27 -13
27 -21 0 -8 5 -15 10 -15 6 0 10 -9 10 -20 0 -12 7 -20 17 -20 9 0 14 -3 10
-6 -3 -4 -25 -7 -49 -7 -24 0 -33 -2 -20 -4 13 -3 26 -12 28 -21 3 -9 10 -25
15 -34 7 -13 5 -18 -5 -18 -8 0 -17 -6 -20 -12 -4 -7 -4 -3 -2 10 3 13 -1 22
-9 22 -17 0 -26 -35 -12 -49 15 -15 -3 -33 -36 -34 l-25 -2 26 -24 c16 -14 28
-19 30 -12 5 14 32 15 32 1 0 -5 7 -10 15 -10 18 0 20 17 3 23 -7 2 4 9 25 16
31 11 37 17 37 42 0 23 4 29 23 29 21 1 21 2 -8 26 -16 14 -21 21 -10 16 27
-13 75 -3 83 17 11 30 53 86 83 113 17 15 28 32 25 37 -6 9 11 23 39 33 5 1 9
9 7 16 -2 6 4 12 12 12 21 0 31 21 15 31 -11 6 -8 9 8 9 12 0 25 5 28 11 5 6
12 4 20 -8 13 -16 14 -15 12 12 -2 24 2 29 16 27 20 -4 49 27 40 42 -4 5 -1 6
6 2 6 -4 9 -11 7 -15 -3 -4 1 -8 9 -8 11 0 12 5 3 21 -10 19 -10 20 5 8 14
-12 16 -11 12 7 -3 15 0 18 12 14 11 -4 14 -2 9 5 -4 7 4 23 18 37 27 27 46
35 26 10z m65 -1 c-11 -8 -20 -20 -20 -27 0 -22 -31 -19 -32 4 -1 13 3 19 10
16 7 -3 21 1 32 9 10 8 21 14 24 14 3 0 -3 -7 -14 -16z m-1899 -21 c-10 -10
-19 5 -10 18 6 11 8 11 12 0 2 -7 1 -15 -2 -18z m61 10 c-9 -9 -20 -13 -24 -9
-4 4 -1 11 7 16 25 16 35 11 17 -7z m57 2 c3 -9 0 -15 -9 -15 -8 0 -15 7 -15
15 0 8 4 15 9 15 5 0 11 -7 15 -15z m1146 1 c0 -3 -4 -8 -10 -11 -5 -3 -10 -1
-10 4 0 6 5 11 10 11 6 0 10 -2 10 -4z m-1373 -28 c-3 -8 -6 -5 -6 6 -1 11 2
17 5 13 3 -3 4 -12 1 -19z m-257 2 c0 -5 -4 -10 -10 -10 -5 0 -10 5 -10 10 0
6 5 10 10 10 6 0 10 -4 10 -10z m1700 -6 c0 -8 -5 -12 -10 -9 -6 4 -8 11 -5
16 9 14 15 11 15 -7z m-1584 -31 c-10 -10 -19 5 -10 18 6 11 8 11 12 0 2 -7 1
-15 -2 -18z m74 11 c0 -8 -6 -11 -15 -8 -8 4 -15 9 -15 13 0 4 7 8 15 8 8 0
15 -6 15 -13z m-174 -21 c-3 -3 -13 -2 -23 2 -17 7 -17 8 2 15 19 7 34 -5 21
-17z m1698 -8 c17 -13 17 -15 3 -21 -23 -8 -22 -23 1 -17 26 6 59 -32 43 -51
-9 -11 -9 -15 1 -19 8 -4 7 -6 -4 -6 -13 -1 -18 7 -18 29 0 20 -5 30 -15 30
-8 0 -15 -6 -15 -12 0 -7 -7 0 -15 16 -13 24 -13 31 -3 38 10 6 10 8 1 8 -7 0
-13 5 -13 10 0 14 11 12 34 -5z m-719 -25 c-3 -5 -14 -10 -23 -10 -15 0 -15 2
-2 10 20 13 33 13 25 0z m835 0 c0 -5 -9 -14 -19 -20 -25 -13 -31 -13 -31 1 0
5 4 8 9 5 5 -3 11 1 15 9 6 17 26 21 26 5z m-1985 -40 c-3 -5 -10 -10 -16 -10
-5 0 -9 5 -9 10 0 6 7 10 16 10 8 0 12 -4 9 -10z m1025 -5 c-14 -17 -40 -20
-40 -6 0 8 18 16 44 20 5 0 3 -6 -4 -14z m925 -5 c3 -5 1 -10 -4 -10 -6 0 -11
5 -11 10 0 6 2 10 4 10 3 0 8 -4 11 -10z m-1985 -10 c0 -5 -4 -10 -9 -10 -6 0
-13 5 -16 10 -3 6 1 10 9 10 9 0 16 -4 16 -10z m1914 -12 c-3 -4 -9 -8 -15 -8
-5 0 -9 4 -9 8 0 5 7 9 15 9 8 0 12 -4 9 -9z m-1751 -25 c-7 -2 -19 -2 -25 0
-7 3 -2 5 12 5 14 0 19 -2 13 -5z m-348 -16 c-10 -8 -15 -19 -11 -25 5 -8 1
-10 -9 -6 -14 6 -14 8 1 25 9 11 22 19 27 19 6 0 3 -6 -8 -13z m2122 -3 c-3
-3 -12 -4 -19 -1 -8 3 -5 6 6 6 11 1 17 -2 13 -5z m-2097 -40 c-1 -4 3 -10 8
-13 7 -4 5 -13 -4 -25 -13 -18 -14 -16 -12 24 1 25 3 39 5 33 3 -7 4 -15 3
-19z m2043 19 c-7 -2 -19 -2 -25 0 -7 3 -2 5 12 5 14 0 19 -2 13 -5z m57 -3
c12 -8 11 -10 -7 -10 -13 0 -23 5 -23 10 0 13 11 13 30 0z m80 -20 c0 -5 -4
-10 -10 -10 -5 0 -10 5 -10 10 0 6 5 10 10 10 6 0 10 -4 10 -10z m-63 -16 c-3
-3 -12 -4 -19 -1 -8 3 -5 6 6 6 11 1 17 -2 13 -5z m-1900 -20 c-3 -3 -12 -4
-19 -1 -8 3 -5 6 6 6 11 1 17 -2 13 -5z m-171 -52 c-6 -5 -36 23 -36 34 0 4 9
-1 20 -11 11 -10 18 -20 16 -23z m171 -14 c-3 -7 -5 -2 -5 12 0 14 2 19 5 13
2 -7 2 -19 0 -25z m1787 -137 c3 -5 -1 -12 -10 -15 -22 -9 -24 -8 -24 9 0 16
25 21 34 6z m-1733 -128 c-12 -20 -14 -14 -5 12 4 9 9 14 11 11 3 -2 0 -13 -6
-23z m10 -26 c-10 -9 -11 -8 -5 6 3 10 9 15 12 12 3 -3 0 -11 -7 -18z"/>
<path d="M14085 9670 c-16 -7 -17 -9 -3 -9 9 -1 20 4 23 9 7 11 7 11 -20 0z"/>
<path d="M12020 9659 c0 -5 5 -7 10 -4 6 3 10 8 10 11 0 2 -4 4 -10 4 -5 0
-10 -5 -10 -11z"/>
<path d="M12683 9663 c9 -2 23 -2 30 0 6 3 -1 5 -18 5 -16 0 -22 -2 -12 -5z"/>
<path d="M12730 9650 c0 -5 5 -10 10 -10 6 0 10 5 10 10 0 6 -4 10 -10 10 -5
0 -10 -4 -10 -10z"/>
<path d="M13120 9650 c0 -6 7 -10 15 -10 8 0 15 2 15 4 0 2 -7 6 -15 10 -8 3
-15 1 -15 -4z"/>
<path d="M13525 9650 c3 -5 8 -10 11 -10 2 0 4 5 4 10 0 6 -5 10 -11 10 -5 0
-7 -4 -4 -10z"/>
<path d="M13980 9650 c0 -5 5 -10 10 -10 6 0 10 5 10 10 0 6 -4 10 -10 10 -5
0 -10 -4 -10 -10z"/>
<path d="M14064 9636 c-10 -8 -17 -16 -14 -19 3 -2 14 4 24 14 23 22 18 25
-10 5z"/>
<path d="M12195 9630 c-3 -5 1 -10 10 -10 9 0 13 5 10 10 -3 6 -8 10 -10 10
-2 0 -7 -4 -10 -10z"/>
<path d="M13408 9613 c7 -3 16 -2 19 1 4 3 -2 6 -13 5 -11 0 -14 -3 -6 -6z"/>
<path d="M13483 9586 c-30 -14 -29 -21 2 -22 18 -2 25 3 25 17 0 10 -1 18 -2
18 -2 -1 -13 -6 -25 -13z"/>
<path d="M14003 9565 c0 -8 4 -12 9 -9 5 3 6 10 3 15 -9 13 -12 11 -12 -6z"/>
<path d="M12160 9490 c0 -5 5 -10 10 -10 6 0 10 5 10 10 0 6 -4 10 -10 10 -5
0 -10 -4 -10 -10z"/>
<path d="M12155 9450 c-3 -5 1 -10 10 -10 9 0 13 5 10 10 -3 6 -8 10 -10 10
-2 0 -7 -4 -10 -10z"/>
<path d="M13801 9424 c0 -11 3 -14 6 -6 3 7 2 16 -1 19 -3 4 -6 -2 -5 -13z"/>
<path d="M11970 9410 c0 -5 5 -10 10 -10 6 0 10 5 10 10 0 6 -4 10 -10 10 -5
0 -10 -4 -10 -10z"/>
<path d="M13585 9390 c3 -5 8 -10 11 -10 2 0 4 5 4 10 0 6 -5 10 -11 10 -5 0
-7 -4 -4 -10z"/>
<path d="M11756 9371 c-3 -4 4 -17 17 -27 22 -19 22 -19 4 2 -9 11 -14 24 -10
27 3 4 4 7 0 7 -3 0 -8 -4 -11 -9z"/>
<path d="M11817 9325 c-8 -8 -18 -11 -23 -7 -5 4 0 -3 10 -15 11 -13 24 -23
30 -22 6 0 6 3 -1 6 -7 2 -13 12 -13 21 0 15 2 15 10 2 7 -12 9 -10 7 8 -2 26
-2 26 -20 7z"/>
<path d="M11860 9240 c0 -5 5 -10 11 -10 5 0 7 5 4 10 -3 6 -8 10 -11 10 -2 0
-4 -4 -4 -10z"/>
<path d="M12080 9240 c0 -6 7 -10 15 -10 8 0 15 2 15 4 0 2 -7 6 -15 10 -8 3
-15 1 -15 -4z"/>
<path d="M12065 9140 c3 -5 8 -10 11 -10 2 0 4 5 4 10 0 6 -5 10 -11 10 -5 0
-7 -4 -4 -10z"/>
<path d="M12146 9038 c3 -5 10 -6 15 -3 13 9 11 12 -6 12 -8 0 -12 -4 -9 -9z"/>
<path d="M12180 9010 c0 -5 5 -10 10 -10 6 0 10 5 10 10 0 6 -4 10 -10 10 -5
0 -10 -4 -10 -10z"/>
<path d="M12056 8996 c10 -8 21 -12 24 -10 5 6 -21 24 -34 24 -6 0 -1 -6 10
-14z"/>
<path d="M12699 8193 c-13 -16 -12 -17 4 -4 9 7 17 15 17 17 0 8 -8 3 -21 -13z"/>
</g>
</svg>
